<?xml version="1.0" encoding="UTF-8"?>
<!DOCTYPE svg PUBLIC "-//W3C//DTD SVG 1.1//EN" "http://www.w3.org/Graphics/SVG/1.1/DTD/svg11.dtd">
<svg xmlns="http://www.w3.org/2000/svg" version="1.1" width="512px" height="512px" style="shape-rendering:geometricPrecision; text-rendering:geometricPrecision; image-rendering:optimizeQuality; fill-rule:evenodd; clip-rule:evenodd" xmlns:xlink="http://www.w3.org/1999/xlink">
<g><path style="opacity:1" fill="#000000" d="M -0.5,-0.5 C 56.1667,-0.5 112.833,-0.5 169.5,-0.5C 169.5,56.1667 169.5,112.833 169.5,169.5C 112.833,169.5 56.1667,169.5 -0.5,169.5C -0.5,112.833 -0.5,56.1667 -0.5,-0.5 Z M 39.5,39.5 C 69.5,39.5 99.5,39.5 129.5,39.5C 129.5,69.5 129.5,99.5 129.5,129.5C 99.5,129.5 69.5,129.5 39.5,129.5C 39.5,99.5 39.5,69.5 39.5,39.5 Z"/></g>
<g><path style="opacity:1" fill="#000000" d="M 239.5,-0.5 C 252.833,-0.5 266.167,-0.5 279.5,-0.5C 279.5,12.8333 279.5,26.1667 279.5,39.5C 266.167,39.5 252.833,39.5 239.5,39.5C 239.5,26.1667 239.5,12.8333 239.5,-0.5 Z"/></g>
<g><path style="opacity:1" fill="#000000" d="M 341.5,-0.5 C 398.167,-0.5 454.833,-0.5 511.5,-0.5C 511.5,56.1667 511.5,112.833 511.5,169.5C 454.833,169.5 398.167,169.5 341.5,169.5C 341.5,112.833 341.5,56.1667 341.5,-0.5 Z M 381.5,39.5 C 411.5,39.5 441.5,39.5 471.5,39.5C 471.5,69.5 471.5,99.5 471.5,129.5C 441.5,129.5 411.5,129.5 381.5,129.5C 381.5,99.5 381.5,69.5 381.5,39.5 Z"/></g>
<g><path style="opacity:1" fill="#000000" d="M 239.5,39.5 C 239.5,65.1667 239.5,90.8333 239.5,116.5C 226.167,116.5 212.833,116.5 199.5,116.5C 199.5,90.8333 199.5,65.1667 199.5,39.5C 212.833,39.5 226.167,39.5 239.5,39.5 Z"/></g>
<g><path style="opacity:1" fill="#000000" d="M 64.5,64.5 C 77.8333,64.5 91.1667,64.5 104.5,64.5C 104.5,77.8333 104.5,91.1667 104.5,104.5C 91.1667,104.5 77.8333,104.5 64.5,104.5C 64.5,91.1667 64.5,77.8333 64.5,64.5 Z"/></g>
<g><path style="opacity:1" fill="#000000" d="M 406.5,64.5 C 419.833,64.5 433.167,64.5 446.5,64.5C 446.5,77.8333 446.5,91.1667 446.5,104.5C 433.167,104.5 419.833,104.5 406.5,104.5C 406.5,91.1667 406.5,77.8333 406.5,64.5 Z"/></g>
<g><path style="opacity:1" fill="#000000" d="M 279.5,116.5 C 279.5,103.167 279.5,89.8333 279.5,76.5C 292.833,76.5 306.167,76.5 319.5,76.5C 319.5,89.8333 319.5,103.167 319.5,116.5C 306.167,116.5 292.833,116.5 279.5,116.5 Z"/></g>
<g><path style="opacity:1" fill="#000000" d="M 239.5,116.5 C 252.833,116.5 266.167,116.5 279.5,116.5C 279.5,143.167 279.5,169.833 279.5,196.5C 252.833,196.5 226.167,196.5 199.5,196.5C 199.5,183.167 199.5,169.833 199.5,156.5C 212.833,156.5 226.167,156.5 239.5,156.5C 239.5,143.167 239.5,129.833 239.5,116.5 Z"/></g>
<g><path style="opacity:1" fill="#000000" d="M 79.5,236.5 C 66.1667,236.5 52.8333,236.5 39.5,236.5C 39.5,223.167 39.5,209.833 39.5,196.5C 52.8333,196.5 66.1667,196.5 79.5,196.5C 79.5,209.833 79.5,223.167 79.5,236.5 Z"/></g>
<g><path style="opacity:1" fill="#000000" d="M 199.5,196.5 C 199.5,209.833 199.5,223.167 199.5,236.5C 172.833,236.5 146.167,236.5 119.5,236.5C 119.5,223.167 119.5,209.833 119.5,196.5C 146.167,196.5 172.833,196.5 199.5,196.5 Z"/></g>
<g><path style="opacity:1" fill="#000000" d="M 279.5,196.5 C 292.833,196.5 306.167,196.5 319.5,196.5C 319.5,223.167 319.5,249.833 319.5,276.5C 306.167,276.5 292.833,276.5 279.5,276.5C 279.5,249.833 279.5,223.167 279.5,196.5 Z"/></g>
<g><path style="opacity:1" fill="#000000" d="M 511.5,235.5 C 511.5,262.167 511.5,288.833 511.5,315.5C 474.167,315.5 436.833,315.5 399.5,315.5C 399.5,302.5 399.5,289.5 399.5,276.5C 386.167,276.5 372.833,276.5 359.5,276.5C 359.5,263.167 359.5,249.833 359.5,236.5C 372.5,236.5 385.5,236.5 398.5,236.5C 398.5,223.167 398.5,209.833 398.5,196.5C 422.833,196.5 447.167,196.5 471.5,196.5C 471.5,209.5 471.5,222.5 471.5,235.5C 484.833,235.5 498.167,235.5 511.5,235.5 Z M 399.5,236.5 C 423.5,236.5 447.5,236.5 471.5,236.5C 471.5,249.5 471.5,262.5 471.5,275.5C 447.5,275.5 423.5,275.5 399.5,275.5C 399.5,262.5 399.5,249.5 399.5,236.5 Z"/></g>
<g><path style="opacity:1" fill="#000000" d="M -0.5,236.5 C 12.8333,236.5 26.1667,236.5 39.5,236.5C 39.5,263.167 39.5,289.833 39.5,316.5C 26.1667,316.5 12.8333,316.5 -0.5,316.5C -0.5,289.833 -0.5,263.167 -0.5,236.5 Z"/></g>
<g><path style="opacity:1" fill="#000000" d="M 79.5,236.5 C 92.8333,236.5 106.167,236.5 119.5,236.5C 119.5,249.833 119.5,263.167 119.5,276.5C 132.5,276.5 145.5,276.5 158.5,276.5C 158.5,289.833 158.5,303.167 158.5,316.5C 145.167,316.5 131.833,316.5 118.5,316.5C 118.5,303.167 118.5,289.833 118.5,276.5C 105.5,276.5 92.5,276.5 79.5,276.5C 79.5,263.167 79.5,249.833 79.5,236.5 Z"/></g>
<g><path style="opacity:1" fill="#000000" d="M 199.5,236.5 C 212.833,236.5 226.167,236.5 239.5,236.5C 239.5,262.833 239.5,289.167 239.5,315.5C 252.833,315.5 266.167,315.5 279.5,315.5C 279.5,328.5 279.5,341.5 279.5,354.5C 306.167,354.5 332.833,354.5 359.5,354.5C 359.5,367.833 359.5,381.167 359.5,394.5C 332.833,394.5 306.167,394.5 279.5,394.5C 279.5,381.5 279.5,368.5 279.5,355.5C 266.167,355.5 252.833,355.5 239.5,355.5C 239.5,342.5 239.5,329.5 239.5,316.5C 226.167,316.5 212.833,316.5 199.5,316.5C 199.5,289.833 199.5,263.167 199.5,236.5 Z"/></g>
<g><path style="opacity:1" fill="#000000" d="M 319.5,276.5 C 332.833,276.5 346.167,276.5 359.5,276.5C 359.5,289.833 359.5,303.167 359.5,316.5C 346.167,316.5 332.833,316.5 319.5,316.5C 319.5,303.167 319.5,289.833 319.5,276.5 Z"/></g>
<g><path style="opacity:1" fill="#000000" d="M -0.5,341.5 C 56.1667,341.5 112.833,341.5 169.5,341.5C 169.5,398.167 169.5,454.833 169.5,511.5C 112.833,511.5 56.1667,511.5 -0.5,511.5C -0.5,454.833 -0.5,398.167 -0.5,341.5 Z M 39.5,381.5 C 69.5,381.5 99.5,381.5 129.5,381.5C 129.5,411.5 129.5,441.5 129.5,471.5C 99.5,471.5 69.5,471.5 39.5,471.5C 39.5,441.5 39.5,411.5 39.5,381.5 Z"/></g>
<g><path style="opacity:1" fill="#000000" d="M 399.5,394.5 C 399.5,381.167 399.5,367.833 399.5,354.5C 412.833,354.5 426.167,354.5 439.5,354.5C 439.5,367.833 439.5,381.167 439.5,394.5C 426.167,394.5 412.833,394.5 399.5,394.5 Z"/></g>
<g><path style="opacity:1" fill="#000000" d="M 511.5,354.5 C 511.5,381.167 511.5,407.833 511.5,434.5C 498.167,434.5 484.833,434.5 471.5,434.5C 471.5,407.833 471.5,381.167 471.5,354.5C 484.833,354.5 498.167,354.5 511.5,354.5 Z"/></g>
<g><path style="opacity:1" fill="#000000" d="M 239.5,355.5 C 239.5,380.833 239.5,406.167 239.5,431.5C 226.167,431.5 212.833,431.5 199.5,431.5C 199.5,406.167 199.5,380.833 199.5,355.5C 212.833,355.5 226.167,355.5 239.5,355.5 Z"/></g>
<g><path style="opacity:1" fill="#000000" d="M 359.5,394.5 C 372.833,394.5 386.167,394.5 399.5,394.5C 399.5,407.833 399.5,421.167 399.5,434.5C 386.167,434.5 372.833,434.5 359.5,434.5C 359.5,421.167 359.5,407.833 359.5,394.5 Z"/></g>
<g><path style="opacity:1" fill="#000000" d="M 64.5,406.5 C 77.8333,406.5 91.1667,406.5 104.5,406.5C 104.5,419.833 104.5,433.167 104.5,446.5C 91.1667,446.5 77.8333,446.5 64.5,446.5C 64.5,433.167 64.5,419.833 64.5,406.5 Z"/></g>
<g><path style="opacity:1" fill="#000000" d="M 239.5,431.5 C 266.167,431.5 292.833,431.5 319.5,431.5C 319.5,444.833 319.5,458.167 319.5,471.5C 332.5,471.5 345.5,471.5 358.5,471.5C 358.5,484.833 358.5,498.167 358.5,511.5C 345.167,511.5 331.833,511.5 318.5,511.5C 318.5,498.167 318.5,484.833 318.5,471.5C 305.5,471.5 292.5,471.5 279.5,471.5C 279.5,484.833 279.5,498.167 279.5,511.5C 266.167,511.5 252.833,511.5 239.5,511.5C 239.5,484.833 239.5,458.167 239.5,431.5 Z"/></g>
<g><path style="opacity:1" fill="#000000" d="M 399.5,434.5 C 423.5,434.5 447.5,434.5 471.5,434.5C 471.5,447.833 471.5,461.167 471.5,474.5C 460.833,474.5 450.167,474.5 439.5,474.5C 439.5,486.833 439.5,499.167 439.5,511.5C 426.167,511.5 412.833,511.5 399.5,511.5C 399.5,485.833 399.5,460.167 399.5,434.5 Z"/></g>
</svg>
