<?xml version="1.0" encoding="UTF-8"?>
<!DOCTYPE svg PUBLIC "-//W3C//DTD SVG 1.1//EN" "http://www.w3.org/Graphics/SVG/1.1/DTD/svg11.dtd">
<svg xmlns="http://www.w3.org/2000/svg" version="1.1" width="512px" height="512px" style="shape-rendering:geometricPrecision; text-rendering:geometricPrecision; image-rendering:optimizeQuality; fill-rule:evenodd; clip-rule:evenodd" xmlns:xlink="http://www.w3.org/1999/xlink">
<g><path style="opacity:0.993" fill="#000000" d="M 217.5,-0.5 C 242.833,-0.5 268.167,-0.5 293.5,-0.5C 297.811,1.6467 300.978,4.98004 303,9.5C 303.5,80.8326 303.667,152.166 303.5,223.5C 326.836,223.333 350.169,223.5 373.5,224C 382.03,228.226 385.197,235.059 383,244.5C 381.428,248.641 379.095,252.308 376,255.5C 339.049,297.24 302.216,339.073 265.5,381C 255.534,385.744 247.034,383.91 240,375.5C 205.373,335.204 170.373,295.204 135,255.5C 131.905,252.308 129.572,248.641 128,244.5C 125.803,235.059 128.97,228.226 137.5,224C 160.831,223.5 184.164,223.333 207.5,223.5C 207.333,152.166 207.5,80.8326 208,9.5C 210.022,4.98004 213.189,1.6467 217.5,-0.5 Z"/></g>
<g><path style="opacity:0.999" fill="#000000" d="M 471.5,511.5 C 327.5,511.5 183.5,511.5 39.5,511.5C 30.7961,508.637 23.9628,503.304 19,495.5C 17.8035,492.911 16.8035,490.244 16,487.5C 15.5,442.168 15.3333,396.835 15.5,351.5C 36.8333,351.5 58.1667,351.5 79.5,351.5C 79.5,383.5 79.5,415.5 79.5,447.5C 196.833,447.5 314.167,447.5 431.5,447.5C 431.5,415.5 431.5,383.5 431.5,351.5C 452.833,351.5 474.167,351.5 495.5,351.5C 495.667,396.835 495.5,442.168 495,487.5C 493.608,493.214 490.941,498.214 487,502.5C 482.4,506.626 477.234,509.626 471.5,511.5 Z"/></g>
</svg>
