<?xml version="1.0" encoding="UTF-8"?>
<!DOCTYPE svg PUBLIC "-//W3C//DTD SVG 1.1//EN" "http://www.w3.org/Graphics/SVG/1.1/DTD/svg11.dtd">
<svg xmlns="http://www.w3.org/2000/svg" version="1.1" width="512px" height="512px" style="shape-rendering:geometricPrecision; text-rendering:geometricPrecision; image-rendering:optimizeQuality; fill-rule:evenodd; clip-rule:evenodd" xmlns:xlink="http://www.w3.org/1999/xlink">
<g><path style="opacity:0.993" fill="white" d="M 249.5,-0.5 C 253.5,-0.5 257.5,-0.5 261.5,-0.5C 265.061,1.54988 268.228,4.21655 271,7.5C 305.627,47.7962 340.627,87.7962 376,127.5C 379.095,130.692 381.428,134.359 383,138.5C 385.197,147.941 382.03,154.774 373.5,159C 350.169,159.5 326.836,159.667 303.5,159.5C 303.667,230.834 303.5,302.167 303,373.5C 301.167,378 298,381.167 293.5,383C 268.167,383.667 242.833,383.667 217.5,383C 213,381.167 209.833,378 208,373.5C 207.5,302.167 207.333,230.834 207.5,159.5C 184.164,159.667 160.831,159.5 137.5,159C 128.97,154.774 125.803,147.941 128,138.5C 129.572,134.359 131.905,130.692 135,127.5C 170.373,87.7962 205.373,47.7962 240,7.5C 242.772,4.21655 245.939,1.54988 249.5,-0.5 Z"/></g>
<g><path style="opacity:0.999" fill="white" d="M 471.5,511.5 C 327.5,511.5 183.5,511.5 39.5,511.5C 30.7961,508.637 23.9628,503.304 19,495.5C 17.8035,492.911 16.8035,490.244 16,487.5C 15.5,442.168 15.3333,396.835 15.5,351.5C 36.8333,351.5 58.1667,351.5 79.5,351.5C 79.5,383.5 79.5,415.5 79.5,447.5C 196.833,447.5 314.167,447.5 431.5,447.5C 431.5,415.5 431.5,383.5 431.5,351.5C 452.833,351.5 474.167,351.5 495.5,351.5C 495.667,396.835 495.5,442.168 495,487.5C 493.608,493.214 490.941,498.214 487,502.5C 482.4,506.626 477.234,509.626 471.5,511.5 Z"/></g>
</svg>